<svg width="42" height="24" viewBox="0 0 42 24" fill="none" xmlns="http://www.w3.org/2000/svg">
<rect x="16" width="10" height="3" fill="white"/>
<rect x="16" y="3" width="8" height="3" fill="#C0CFE0"/>
<rect x="13" y="6" width="8" height="3" fill="#C0CFE0"/>
<rect x="11" y="9" width="8" height="2" fill="#C0CFE0"/>
<rect x="3" y="11" width="8" height="2" fill="#34639B"/>
<rect x="3" y="13" width="10" height="1" fill="#34639B"/>
<rect x="3" y="14" width="11" height="2" fill="#34639B"/>
<rect x="29" y="13" width="10" height="3" fill="#34639B"/>
<rect x="32" y="11" width="7" height="2" fill="#34639B"/>
<rect x="6" y="16" width="30" height="3" fill="#34639B"/>
<rect x="11" y="19" width="20" height="2" fill="#34639B"/>
<rect x="21" y="6" width="8" height="3" fill="#AEAEAE"/>
<rect x="19" y="9" width="13" height="2" fill="#AEAEAE"/>
<rect x="13" y="11" width="17" height="2" fill="#AEAEAE"/>
<rect x="14" y="13" width="15" height="1" fill="#AEAEAE"/>
<rect x="24" y="3" width="2" height="3" fill="#AEAEAE"/>
<rect x="11" y="11" width="2" height="2" fill="white"/>
<rect x="13" y="13" width="1" height="1" fill="white"/>
<rect x="29" y="13" width="1" height="1" fill="white"/>
<rect x="30" y="11" width="2" height="2" fill="white"/>
<rect x="14" y="14" width="15" height="2" fill="white"/>
<rect x="36" y="16" width="3" height="3" fill="white"/>
<rect x="3" y="16" width="3" height="3" fill="white"/>
<rect x="6" y="19" width="5" height="2" fill="white"/>
<rect x="31" y="19" width="5" height="2" fill="white"/>
<rect x="11" y="21" width="20" height="3" fill="white"/>
<rect x="39" y="11" width="3" height="5" fill="white"/>
<rect y="11" width="3" height="5" fill="white"/>
<rect x="3" y="9" width="8" height="2" fill="white"/>
<rect x="32" y="9" width="8" height="2" fill="white"/>
<rect x="29" y="6" width="5" height="3" fill="white"/>
<rect x="8" y="6" width="5" height="3" fill="white"/>
<rect x="13" y="3" width="3" height="3" fill="white"/>
<rect x="26" y="3" width="3" height="3" fill="white"/>
</svg>
